<svg width="37" height="20" viewBox="0 0 37 20" fill="none" xmlns="http://www.w3.org/2000/svg">
<path d="M0 1.5C0 0.671573 0.671573 0 1.5 0H35.5C36.3284 0 37 0.671573 37 1.5C37 2.32843 36.3284 3 35.5 3H1.5C0.671572 3 0 2.32843 0 1.5Z" fill="black"/>
<path d="M0 10.5C0 9.67157 0.671573 9 1.5 9H35.5C36.3284 9 37 9.67157 37 10.5C37 11.3284 36.3284 12 35.5 12H1.5C0.671572 12 0 11.3284 0 10.5Z" fill="black"/>
<path d="M0 18.5C0 17.6716 0.671573 17 1.5 17H35.5C36.3284 17 37 17.6716 37 18.5C37 19.3284 36.3284 20 35.5 20H1.5C0.671572 20 0 19.3284 0 18.5Z" fill="black"/>
</svg>
